<?xml version="1.0" encoding="UTF-8"?>
<!--Generator: Apple Native CoreSVG 341-->
<!DOCTYPE svg
PUBLIC "-//W3C//DTD SVG 1.1//EN"
       "http://www.w3.org/Graphics/SVG/1.1/DTD/svg11.dtd">
<svg version="1.1" xmlns="http://www.w3.org/2000/svg" xmlns:xlink="http://www.w3.org/1999/xlink" viewBox="0 0 142.204 146.045">
 <g>
  <rect height="146.045" opacity="0" width="142.204" x="0" y="0"/>
  <path d="M102.645 137.451C112.557 132.764 115.047 123.389 115.487 111.133C115.828 102.539 115.145 92.5293 117.342 82.666C119.491 73.0957 124.52 64.3066 127.987 56.3477C132.821 45.3125 134.627 35.7422 127.889 27.1973C120.955 18.6035 111.239 18.2129 99.3246 20.5566C90.7796 22.2168 81.1117 25.0488 71.1019 25.0488C61.0433 25.0488 51.4242 22.2168 42.9281 20.5566C30.9652 18.1641 21.1507 18.6035 14.3636 27.1484C7.57652 35.7422 9.38316 45.3613 14.2171 56.3477C17.6839 64.3066 22.6156 73.0957 24.8617 82.7148C27.0589 92.5293 26.3753 102.539 26.7171 111.133C27.1566 123.389 29.6468 132.764 39.5101 137.451C42.4886 138.867 45.4183 139.551 48.2503 139.551C54.7933 139.551 61.1898 136.133 67.9769 131.104C75.057 125.977 82.6742 119.189 91.6097 114.844C100.643 110.498 110.457 108.936 118.709 106.738C130.623 103.564 139.217 99.0723 141.659 88.4277C144.051 77.7832 138.338 69.873 129.061 62.0117C122.371 56.3477 114.217 50.5371 107.918 42.7246C101.766 34.9609 98.1039 25.7812 94.0511 18.0664C88.3382 7.32422 82.0394 0 71.1019 0C60.2132 0 53.8656 7.32422 48.2015 18.0664C44.1488 25.7812 40.4378 34.9121 34.2367 42.7734C27.9867 50.5859 19.7836 56.3477 13.1918 62.0117C3.86558 69.873-1.84731 77.7832 0.54527 88.4277C2.98668 99.0723 11.5316 103.564 23.348 106.738C31.7953 108.936 41.5609 110.498 50.6429 114.844C59.5296 119.189 67.1468 125.928 74.1293 131.152C80.9652 136.133 87.3128 139.551 93.9046 139.551C96.7855 139.551 99.6664 138.867 102.645 137.451ZM98.9339 129.736C91.8539 133.057 85.848 128.857 79.4515 124.268C71.932 118.75 63.7289 111.621 54.4515 107.129C44.8812 102.539 34.3832 100.635 25.4476 98.3398C17.7816 96.2402 10.7015 94.1406 9.04136 86.4746C7.28355 78.8574 12.6546 73.877 18.6117 68.7012C25.6918 62.6465 34.432 56.3477 40.9261 48.1445C47.5668 40.0391 51.5218 30.1758 55.8675 21.9727C59.6273 14.9902 63.2894 8.64258 71.1019 8.64258C78.9144 8.64258 82.6253 14.9902 86.2875 21.9727C90.6332 30.1758 94.6371 39.9414 101.18 48.1934C107.772 56.3965 116.463 62.6465 123.543 68.7012C129.549 73.877 134.92 78.8574 133.211 86.4746C131.502 94.1406 124.422 96.2402 116.756 98.3398C108.114 100.537 97.3226 102.539 87.8011 107.129C78.475 111.621 70.0765 118.848 62.7035 124.316C56.3558 128.857 50.3011 133.057 43.2211 129.736C36.2386 126.318 35.7015 118.896 35.3597 111.035C35.0179 101.807 35.6039 91.1133 33.2601 80.7617C30.9164 70.7031 25.8871 61.2793 22.0785 52.6367C19.1 45.459 16.2679 38.623 21.1019 32.6172C25.9847 26.5137 33.2601 27.5879 41.0238 29.0039C50.1058 30.7617 60.5062 33.6914 71.1019 33.6914C81.6976 33.6914 92.098 30.7617 101.18 29.0039C108.944 27.5391 116.219 26.5137 121.053 32.5684C125.936 38.623 123.104 45.5078 120.125 52.6367C116.317 61.2793 111.19 70.7031 108.944 80.8105C106.6 91.1133 107.186 101.807 106.844 111.035C106.453 118.896 105.965 126.318 98.9339 129.736Z" fill="black" fill-opacity="0.85"/>
 </g>
</svg>
